<svg xmlns="http://www.w3.org/2000/svg" width="34" height="30" fill="none"><path fill-rule="evenodd" clip-rule="evenodd" d="M6.8 29.486c-1.584 0-3.073-.616-4.193-1.737C1.487 26.629.87 25.14.87 23.556c0-1.583.617-3.073 1.737-4.193l16.97-16.97c3.092-3.091 8.124-3.092 11.215 0C32.29 3.89 33.115 5.882 33.115 8c0 2.118-.825 4.11-2.323 5.607L18.064 26.335l-1.315-1.315 12.728-12.728c2.367-2.367 2.367-6.217 0-8.584-2.365-2.366-6.217-2.367-8.584 0L3.922 20.679c-.769.768-1.192 1.79-1.192 2.877 0 1.088.423 2.109 1.192 2.878 1.587 1.587 4.169 1.586 5.756 0l12.728-12.728c.807-.807.807-2.12 0-2.928-.807-.807-2.121-.806-2.927.001l-8.486 8.485-1.315-1.315 8.485-8.486c1.532-1.531 4.026-1.532 5.558 0 1.532 1.533 1.532 4.026 0 5.558L10.993 27.749c-1.12 1.121-2.609 1.737-4.193 1.737z" fill="#000" opacity=".4"/></svg>