<svg width="17" height="15" fill="none" xmlns="http://www.w3.org/2000/svg"><path fill-rule="evenodd" clip-rule="evenodd" d="M3.4 14.743c-.792 0-1.5365-.308-2.0965-.8685-.56-.56-.8685-1.3045-.8685-2.0965 0-.7915.3085-1.5365.8685-2.0965l8.485-8.485c1.546-1.5455 4.062-1.546 5.6075 0C16.145 1.945 16.5575 2.941 16.5575 4c0 1.059-.4125 2.055-1.1615 2.8035l-6.364 6.364-.6575-.6575 6.364-6.364c1.1835-1.1835 1.1835-3.1085 0-4.292-1.1825-1.183-3.1085-1.1835-4.292 0L1.961 10.3395c-.3845.384-.596.895-.596 1.4385 0 .544.2115 1.0545.596 1.439.7935.7935 2.0845.793 2.878 0l6.364-6.364c.4035-.4035.4035-1.06 0-1.464-.4035-.4035-1.0605-.403-1.4635.0005L5.4965 9.632l-.6575-.6575 4.2425-4.243c.766-.7655 2.013-.766 2.779 0 .766.7665.766 2.013 0 2.779l-6.364 6.364c-.56.5605-1.3045.8685-2.0965.8685z" fill="#0055FB"/></svg>